<svg width="20" height="20" viewBox="0 0 20 20" fill="none" xmlns="http://www.w3.org/2000/svg">
<g clip-path="url(#clip0_2011_2813)">
<path d="M11.9341 16.6311C12.2888 16.3577 13.356 16.3202 13.8091 16.2561C14.0935 16.2155 14.6044 16.1733 14.8232 15.9358C15.2216 15.5046 15.2482 15.089 15.2044 14.7218C15.1575 14.339 15.0794 13.9702 15.2232 13.739C15.2966 13.6218 15.606 13.0311 15.2357 12.8858C15.0388 12.8077 14.9107 12.878 14.0904 12.9061C13.7091 12.9186 13.4185 12.7733 13.5435 12.5671C13.6825 12.4093 14.2779 12.3421 14.8372 12.1358C15.2325 11.9905 15.4404 11.9015 15.4857 11.5608C15.5138 11.3546 15.3638 11.2327 15.2872 10.9765C15.2169 10.7436 15.2841 10.6374 15.3794 10.5436C15.5247 10.4015 15.9091 10.1718 15.9607 9.75302C16.0466 9.03739 14.8529 8.66864 14.4607 7.92646C14.2732 7.57177 14.4325 6.60771 14.4325 6.29364C14.4325 5.02177 13.7966 2.89052 11.7872 1.67333C9.98098 0.579582 7.71536 0.457707 5.66536 0.970207C4.68567 1.21552 3.69192 1.87802 3.04661 2.45771C1.50442 3.84208 1.15598 5.88271 1.04348 6.61396C0.687234 8.91396 1.30911 10.6733 2.2013 12.0858C3.49036 14.128 5.34505 15.4452 5.62942 16.6186C5.67317 16.8015 5.70755 17.1827 5.70755 17.5108C5.70755 18.2124 5.66848 18.7936 5.62786 19.2186H11.5513C11.5404 18.2374 11.5216 16.9515 11.9341 16.6311Z" fill="#1976D2"/>
<path d="M16.3754 11.1483C16.3015 11.1483 16.2295 11.1244 16.1702 11.0803C16.1109 11.0362 16.0673 10.9742 16.046 10.9034C16.0246 10.8326 16.0265 10.7569 16.0515 10.6873C16.0765 10.6178 16.1232 10.5581 16.1847 10.5171L18.5504 8.95615C18.7082 8.85146 18.9222 8.89521 19.0269 9.05303C19.1316 9.21084 19.0879 9.4249 18.9301 9.52959L16.5644 11.0905C16.5066 11.1296 16.441 11.1483 16.3754 11.1483ZM18.741 15.3671C18.6754 15.3671 18.6097 15.3483 18.5519 15.3108L16.1863 13.7499C16.1486 13.725 16.1161 13.693 16.0908 13.6555C16.0655 13.6181 16.0479 13.576 16.0389 13.5317C16.0299 13.4875 16.0297 13.4418 16.0384 13.3975C16.0471 13.3532 16.0644 13.311 16.0894 13.2733C16.1143 13.2356 16.1464 13.2032 16.1838 13.1779C16.2212 13.1526 16.2633 13.1349 16.3076 13.1259C16.3519 13.1169 16.3975 13.1167 16.4418 13.1254C16.4862 13.1341 16.5284 13.1514 16.566 13.1765L18.9316 14.7374C19.091 14.8421 19.1332 15.0562 19.0285 15.214C18.9613 15.3124 18.8519 15.3671 18.741 15.3671ZM16.4519 12.403C16.4068 12.4034 16.362 12.395 16.3201 12.3781C16.2783 12.3612 16.2402 12.3362 16.208 12.3046C16.1757 12.2729 16.1501 12.2353 16.1324 12.1937C16.1148 12.1522 16.1055 12.1075 16.1051 12.0624C16.1046 12.0173 16.1131 11.9725 16.13 11.9306C16.1469 11.8888 16.1719 11.8506 16.2035 11.8184C16.2352 11.7862 16.2728 11.7605 16.3144 11.7429C16.3559 11.7252 16.4005 11.7159 16.4457 11.7155L19.2785 11.6655C19.4691 11.664 19.6254 11.814 19.6285 12.003C19.6316 12.1921 19.4801 12.3499 19.291 12.353L16.4582 12.403H16.4519Z" fill="#B0BEC5"/>
</g>
<defs>
<clipPath id="clip0_2011_2813">
<rect width="20" height="20" fill="white"/>
</clipPath>
</defs>
</svg>
